{"title":"A Numbers Game 2010 DVDRip XviD By SKITTLES","uid":5751868,"size":733069909,"categoryP":"video","categoryS":"movies","magnet":"?xt=urn:btih:6b02196a315c0f544bc10923a3f3cd782974cfa0&amp;dn=A+Numbers+Game+2010+DVDRip+XviD+By+SKITTLES&amp;tr=udp%3A%2F%2Ftracker.openbittorrent.com%3A80&amp;tr=udp%3A%2F%2Fopen.demonii.com%3A1337&amp;tr=udp%3A%2F%2Ftracker.coppersurfer.tk%3A6969&amp;tr=udp%3A%2F%2Fexodus.desync.com%3A6969","seeders":0,"leechers":0,"uploader":"SkittlesRG","files":-1,"time":1281427350,"description":"[img]http://leetleech.org/images/94590458602038733402.jpg[/img]\n\nUser Rating:\n3.6/10   130 votes \n\nDirector:\nJames Van Alden\n\nWriter:\nJames Van Alden (writer)\n\nRelease Date:\n15 April 2010 (USA) \n\nGenre:\nComedy\n\nPlot:\nNeal is a good looking, smooth talking, killer deal closer\nwho can sell anything to anyone at any time. For Neal, sales\nis just a numbers game; you can't sell to everyone, but you\nmake enough calls in one day and you will make money. For\nCatherine, sales is nothing but stress and hard work. As the\nmanager of a failing sales team Catherine's job is on the\nline, and her boss has called in Neal to turn things around\nWill Neal's methods help Catherine's sales team, or will his\nsmooth talking get them both into trouble?\n\n[img]http://leetleech.org/images/04211155958951097801.jpg[/img]\n\nVideo\nID                               : 0\nFormat                           : MPEG-4 Visual\nFormat profile                   : Advanced Simple@L5\nFormat settings, BVOP            : Yes\nFormat settings, QPel            : No\nFormat settings, GMC             : No warppoints\nFormat settings, Matrix          : Default (H.263)\nMuxing mode                      : Packed bitstream\nCodec ID                         : XVID\nCodec ID/Hint                    : XviD\nDuration                         : 1h 15mn\nBit rate                         : 1 151 Kbps\nWidth                            : 640 pixels\nHeight                           : 352 pixels\nDisplay aspect ratio             : 16:9\nFrame rate                       : 23.976 fps\nResolution                       : 8 bits\nColorimetry                      : 4:2:0\nScan type                        : Progressive\nBits/(Pixel*Frame)               : 0.213\nStream size                      : 625 MiB (89%)\nWriting library                  : XviD 1.2.1 (UTC 2008-12-04)\n\nAudio\nID                               : 1\nFormat                           : MPEG Audio\nFormat version                   : Version 1\nFormat profile                   : Layer 3\nMode                             : Joint stereo\nCodec ID                         : 55\nCodec ID/Hint                    : MP3\nDuration                         : 1h 15mn\nBit rate mode                    : Constant\nBit rate                         : 128 Kbps\nChannel(s)                       : 2 channels\nSampling rate                    : 48.0 KHz\nStream size                      : 69.4 MiB (10%)\nAlignment                        : Aligned on interleaves\nInterleave, duration             : 42 ms (1.00 video frame)\nInterleave, preload duration     : 504 ms\n\nURL: http://www.imdb.com/title/tt1283542/\nTRAILER: http://www.imdb.com/video/screenplay/vi2332690201/","torrent":{"xt":"urn:btih:6b02196a315c0f544bc10923a3f3cd782974cfa0","amp;dn":"A+Numbers+Game+2010+DVDRip+XviD+By+SKITTLES","amp;tr":["udp%3A%2F%2Ftracker.openbittorrent.com%3A80","udp%3A%2F%2Fopen.demonii.com%3A1337","udp%3A%2F%2Ftracker.coppersurfer.tk%3A6969","udp%3A%2F%2Fexodus.desync.com%3A6969"],"infoHash":"6b02196a315c0f544bc10923a3f3cd782974cfa0","infoHashBuffer":{"type":"Buffer","data":[107,2,25,106,49,92,15,84,75,193,9,35,163,243,205,120,41,116,207,160]},"announce":[],"urlList":[]}}